<?xml version="1.0" encoding="UTF-8" standalone="no"?>
<!DOCTYPE svg PUBLIC "-//W3C//DTD SVG 1.1//EN" "http://www.w3.org/Graphics/SVG/1.1/DTD/svg11.dtd">
<svg width="100%" height="100%" viewBox="0 0 30 30" version="1.1" xmlns="http://www.w3.org/2000/svg" xmlns:xlink="http://www.w3.org/1999/xlink" xml:space="preserve" xmlns:serif="http://www.serif.com/" style="fill-rule:evenodd;clip-rule:evenodd;stroke-linecap:round;stroke-linejoin:round;stroke-miterlimit:1.5;">
    <g id="K">
        <path d="M1,0L1,30" style="fill:none;stroke:white;stroke-width:3.38px;"/>
        <g transform="matrix(1.07855,0.153556,0.080552,1.17254,-3.21886,-3.58615)">
            <path d="M6.5,15L17,30" style="fill:none;stroke:white;stroke-width:2.16px;"/>
        </g>
        <g transform="matrix(0.991451,-0.171294,0.178005,0.962199,-4.64376,7.65151)">
            <path d="M1,16L21.614,-7.222" style="fill:none;stroke:white;stroke-width:2.35px;"/>
        </g>
    </g>
    <g id="T" transform="matrix(0.942857,0,0,0.935484,1.18571,1.93548)">
        <g>
            <g transform="matrix(0.972222,0,0,1,0.333333,1)">
                <path d="M12,13.5L30,13.5" style="fill:none;stroke:white;stroke-width:2.16px;stroke-linecap:butt;"/>
            </g>
            <g transform="matrix(1,0,0,0.909091,0,2.72727)">
                <path d="M21,13.5L21,30" style="fill:none;stroke:white;stroke-width:2px;"/>
            </g>
        </g>
    </g>
    <g id="Pot">
        <g transform="matrix(1.1,0,0,1,-1.8,0)">
            <path d="M14.5,7L14.5,10.752C14.5,11.441 15.008,12 15.635,12C18.075,12 23.764,12 25.778,12C25.969,12 26.153,11.916 26.288,11.767C26.424,11.618 26.5,11.416 26.5,11.205C26.5,9.795 26.5,7 26.5,7" style="fill:none;stroke:white;stroke-width:0.95px;"/>
            <g transform="matrix(0.00572446,1.09998,-0.232178,0.00146203,14.4621,-23.3597)">
                <path d="M28.5,5L28.5,7" style="fill:none;stroke:white;stroke-width:1.25px;"/>
            </g>
            <g transform="matrix(0.0021562,1.1,-0.232182,0.000550694,29.1093,-23.3527)">
                <path d="M28.5,5L28.5,7" style="fill:none;stroke:white;stroke-width:1.25px;"/>
            </g>
        </g>
        <g transform="matrix(1,0,0,1,0,1)">
            <g transform="matrix(1,0,0,1,0.5,-4.44089e-16)">
                <path d="M16.5,5.5C18.551,4.997 17,2.233 18.5,1.5" style="fill:none;stroke:white;stroke-width:0.48px;"/>
            </g>
            <g transform="matrix(1,0,0,1,3.5,-8.88178e-16)">
                <path d="M16.5,5.5C18.551,4.997 17,2.233 18.5,1.5" style="fill:none;stroke:white;stroke-width:0.48px;"/>
            </g>
            <g transform="matrix(1,0,0,1,6.5,-4.44089e-16)">
                <path d="M16.5,5.5C18.551,4.997 17,2.233 18.5,1.5" style="fill:none;stroke:white;stroke-width:0.48px;"/>
            </g>
        </g>
        <g transform="matrix(1.3125,0,0,1,-6.15625,0.5)">
            <path d="M16.5,7.5L24.5,7.5" style="fill:none;stroke:white;stroke-width:0.27px;"/>
        </g>
    </g>
</svg>
