<?xml version="1.0" encoding="UTF-8" standalone="no"?>
<!DOCTYPE svg PUBLIC "-//W3C//DTD SVG 1.1//EN" "http://www.w3.org/Graphics/SVG/1.1/DTD/svg11.dtd">
<svg width="100%" height="100%" viewBox="0 0 30 30" version="1.1" xmlns="http://www.w3.org/2000/svg" xmlns:xlink="http://www.w3.org/1999/xlink" xml:space="preserve" xmlns:serif="http://www.serif.com/" style="fill-rule:evenodd;clip-rule:evenodd;stroke-linecap:round;stroke-linejoin:round;stroke-miterlimit:1.5;">
    <g transform="matrix(1,0,0,0.862745,0,0.411765)">
        <g transform="matrix(0.968661,0,0,1.15909,0.466386,-0.477273)">
            <path d="M21.066,5.602C21.066,4.927 20.502,4.381 19.805,4.381C17.259,4.381 11.52,4.381 8.862,4.381C8.088,4.381 7.461,4.988 7.461,5.737C7.461,9.719 7.461,21.34 7.461,25.272C7.461,25.622 7.605,25.957 7.86,26.204C8.115,26.451 8.461,26.59 8.822,26.59C11.469,26.59 17.277,26.59 19.825,26.59C20.154,26.59 20.47,26.464 20.703,26.238C20.935,26.013 21.066,25.707 21.066,25.389C21.066,21.531 21.066,9.486 21.066,5.602Z" style="fill:none;stroke:rgb(43,43,43);stroke-width:0.91px;"/>
        </g>
        <g transform="matrix(1,0,0,1.15909,0,-0.477273)">
            <path d="M21.066,21.9L7.461,21.9L7.461,25.272C7.461,26 8.051,26.59 8.779,26.59C11.42,26.59 17.323,26.59 19.864,26.59C20.528,26.59 21.066,26.052 21.066,25.389C21.066,23.999 21.066,21.9 21.066,21.9ZM14.283,22.288C15.267,22.288 16.066,23.035 16.066,23.954C16.066,24.874 15.267,25.621 14.283,25.621C13.299,25.621 12.5,24.874 12.5,23.954C12.5,23.035 13.299,22.288 14.283,22.288Z" style="fill:rgb(43,43,43);stroke:rgb(43,43,43);stroke-width:0.41px;"/>
        </g>
    </g>
</svg>
