<svg viewBox="0 0 30 30" xmlns="http://www.w3.org/2000/svg" fill-rule="evenodd" clip-rule="evenodd" stroke-linecap="round" stroke-linejoin="round" stroke-miterlimit="1.5"><path d="M1 0v30" fill="none" stroke="#fff" stroke-width="3.38"/><path d="M6.5 15L17 30" fill="none" stroke="#fff" stroke-width="2.16" transform="matrix(1.07855 .15356 .08055 1.17254 -3.219 -3.586)"/><path d="M1 16L21.614-7.222" fill="none" stroke="#fff" stroke-width="2.35" transform="matrix(.99145 -.1713 .178 .9622 -4.644 7.652)"/><g fill="none" stroke="#fff"><path d="M12 13.5h18" stroke-width="2.16" stroke-linecap="butt" transform="matrix(.91667 0 0 .93548 1.5 2.871)"/><path d="M21 13.5V30" stroke-width="2" transform="matrix(.94286 0 0 .85044 1.186 4.487)"/></g><path d="M14.5 7v3.752c0 .689.508 1.248 1.135 1.248h10.143a.69.69 0 00.51-.233.834.834 0 00.212-.562V7" fill="none" stroke="#fff" stroke-width=".95" transform="matrix(1.1 0 0 1 -1.8 0)"/><path d="M28.5 5v2" fill="none" stroke="#fff" stroke-width="1.25" transform="matrix(.0063 1.09998 -.2554 .00146 14.108 -23.36)"/><path d="M28.5 5v2" fill="none" stroke="#fff" stroke-width="1.25" transform="matrix(.00237 1.1 -.2554 .00055 30.22 -23.353)"/><path d="M17 6.5c2.051-.503.5-3.267 2-4m1 4c2.051-.503.5-3.267 2-4m1 4c2.051-.503.5-3.267 2-4" fill="none" stroke="#fff" stroke-width=".48"/><path d="M16.5 7.5h8" fill="none" stroke="#fff" stroke-width=".27" transform="matrix(1.3125 0 0 1 -6.156 .5)"/></svg>