<svg viewBox="0 0 30 30" xmlns="http://www.w3.org/2000/svg" fill-rule="evenodd" clip-rule="evenodd" stroke-linecap="round" stroke-linejoin="round" stroke-miterlimit="1.5"><path d="M21.066 5.602c0-.675-.564-1.221-1.261-1.221H8.862c-.774 0-1.401.607-1.401 1.356v19.535c0 .35.144.685.399.932s.601.386.962.386h11.003c.329 0 .645-.126.878-.352.232-.225.363-.531.363-.849V5.602z" fill="none" stroke="#2b2b2b" stroke-width=".91" transform="matrix(.96866 0 0 1 .466 0)"/><path d="M21.066 21.9H7.461v3.372c0 .728.59 1.318 1.318 1.318h11.085c.664 0 1.202-.538 1.202-1.201V21.9zm-6.783.388c.984 0 1.783.747 1.783 1.666 0 .92-.799 1.667-1.783 1.667-.984 0-1.783-.747-1.783-1.667 0-.919.799-1.666 1.783-1.666z" fill="#2b2b2b" stroke="#2b2b2b" stroke-width=".41"/></svg>